<svg xmlns="http://www.w3.org/2000/svg" viewBox="0 0 256 256">
  <defs>
    <linearGradient id="brandGradient" x1="0%" y1="0%" x2="100%" y2="100%">
      <stop offset="0%" stop-color="#6dd5ed" />
      <stop offset="100%" stop-color="#2193b0" />
    </linearGradient>
  </defs>
  <rect width="256" height="256" rx="48" fill="#0d1117" />
  <g transform="translate(56 52)">
    <path
      d="M72 0c39.764 0 72 32.236 72 72s-32.236 72-72 72S0 111.764 0 72 32.236 0 72 0z"
      fill="url(#brandGradient)"
      opacity="0.2"
    />
    <path
      d="M118.6 95.8c0 24.552-19.897 44.45-44.45 44.45-20.855 0-38.417-14.357-43.294-34.23l-0.306-1.27h24.612l0.181 0.576c4.088 12.994 16.195 21.731 29.886 20.672 15.482-1.205 27.49-14.262 27.49-29.84 0-16.508-13.41-29.918-29.918-29.918-9.793 0-18.72 4.733-24.299 12.725l-0.332 0.475H33.68L45.32 23.944h72.08l-7.86 22.02H74.087c6.403-4.016 13.845-6.27 21.525-6.27 24.553 0 44.45 19.897 44.45 44.45z"
      fill="#e4f2ff"
    />
  </g>
</svg>
