<svg xmlns="http://www.w3.org/2000/svg" viewBox="0 0 256 256">
  <defs>
    <linearGradient id="brandGradient" x1="0%" y1="0%" x2="100%" y2="100%">
      <stop offset="0%" stop-color="#6dd5ed" />
      <stop offset="100%" stop-color="#2193b0" />
    </linearGradient>
  </defs>
  <rect width="256" height="256" rx="64" fill="#0d1117" />
  <path
    d="M128 48c44.183 0 80 35.817 80 80s-35.817 80-80 80-80-35.817-80-80 35.817-80 80-80z"
    fill="url(#brandGradient)"
    opacity="0.25"
  />
  <path
    d="M168.92 151.18c0 22.718-18.42 41.138-41.138 41.138-18.08 0-33.3-11.755-38.496-28.038l-0.272-1.04h21.504l0.157 0.471c3.378 10.733 13.374 17.966 24.695 17.069 12.794-0.995 22.702-11.77 22.702-24.928 0-13.803-11.19-24.993-24.993-24.993-8.19 0-15.662 3.955-20.344 10.628l-0.278 0.396H92.68l9.642-27.034h63.76l-6.957 19.501h-26.96c5.671-3.554 12.268-5.545 19.075-5.545 22.718 0 41.138 18.42 41.138 41.138z"
    fill="#e4f2ff"
  />
</svg>
